<svg width="706" height="270" viewBox="0 0 706 270" fill="none" xmlns="http://www.w3.org/2000/svg">
<path d="M458 268.329L296.5 35.8292C296.5 31.9959 295.5 17.8293 322 5.32925C348.5 -7.17076 367.833 7.99592 378 18.8293L474.5 150.329C474.5 150.329 550 18.8292 561.5 12.3292C573 5.82924 582 -1.67074 601 0.329246C620 2.32923 632.833 18.9959 637 27.3293L706 268.329L616 265.329L583 128.829L509 247.329C507.5 250.663 501.6 258.929 490 265.329C478.4 271.729 463.833 269.996 458 268.329Z" fill="#FF0000"/>
<path d="M101.5 265.829H0L171 26.8292C178 19.6626 190 2.32922 218 1.82922C246 1.32922 260.667 17.3292 269 26.8292L435.5 265.829H129L177 198.329H286.5L218 102.829L101.5 265.829Z" fill="#D9D9D9"/>
</svg>
